# xmcd
#
# Track frame offsets:
#	150
#	22375
#	42260
#
# Disc length: 853 seconds
#
# Revision: 0
# Processed by: cddbd v1.5.1PL0 Copyright (c) Steve Scherf et al.
# Submitted via: audiograbber 1.83.01
#
DISCID=23035303
DTITLE=Jeff Healey Band - When The Night Comes Falling From The Sky
DYEAR=1989
DGENRE=
TTITLE0=When The Night Comes Falling From The Sky
TTITLE1=Angel Eyes
TTITLE2=Roadhouse Blues
EXTD=
EXTT0=
EXTT1=
EXTT2=
PLAYORDER=
